<svg width="562" height="75" viewBox="0 0 562 75" xmlns="http://www.w3.org/2000/svg"><title>LOGO_basic</title><path d="M11.12 1.18l5.834 45.22h.413L25.7 1.18h7.803l8.325 45.22h.617L48.06 1.18h11.025L47.657 73.766h-9.371L29.96 26.905h-.729l-8.328 46.861h-9.358L.102 1.18zm67.843 20.224l-5.412 27.58h11.035l-5.623-27.58zM89.27 73.767l-3.438-15.555H72.515l-3.438 15.555H58.659L74.59 1.181h9.158L99.66 73.767H89.27zM118.515 1.18v62.738h22.045v9.848H108.1V1.18zm41.365 0v34.948L176.425 1.18h10.926l-14.777 29.771 17.473 42.815h-11.336l-12.379-32.45-6.452 11.188v21.262h-10.415V1.18zm88.847 17.534c0-2.176-.197-4.363-2.164-6.334-1.152-1.128-3.025-2.07-5.63-2.07-2.614 0-4.474.942-5.635 2.07-1.971 1.97-2.165 4.158-2.165 6.334v37.537c0 2.177.194 4.357 2.165 6.325 1.161 1.137 3.02 2.069 5.636 2.069 2.604 0 4.477-.932 5.629-2.07 1.967-1.967 2.164-4.147 2.164-6.324V18.714zm-26.012 1.546c0-5.491.424-10.783 5.423-15.44 3.116-2.913 7.376-4.668 12.796-4.668 5.405 0 9.68 1.755 12.792 4.668 4.985 4.657 5.416 9.949 5.416 15.44v34.435c0 5.478-.43 10.777-5.416 15.444-3.113 2.91-7.387 4.681-12.792 4.681-5.42 0-9.68-1.771-12.796-4.68-5-4.668-5.423-9.967-5.423-15.445V20.26zM269.29 1.18h31.637v9.859h-21.23v21.775h18.629v9.848h-18.628v31.104H269.29zm88.759 18.154c0-1.552-.098-4.566-1.765-6.639-.941-1.14-2.51-2.386-5.52-2.386-1.463 0-3.438.318-5.104 1.965-1.972 2.075-2.192 4.981-2.192 7.377 0 1.961.329 5.59 1.67 7.567 1.138 1.755 3.238 2.582 4.796 3.206l6.35 2.278c3.127 1.151 6.764 2.498 9.47 6.227 2.808 3.848 3.13 7.982 3.13 12.555v2.478c0 7.377-1.995 12.97-5.006 16.068-2.713 2.811-7.499 4.79-13.524 4.79-7.407 0-12.18-3.015-14.577-6.332-3.333-4.459-3.333-11.313-3.333-12.238v-2.39h10.411v1.965c0 1.667.207 4.556 1.667 6.426 1.754 2.187 4.365 2.392 5.717 2.392 3.949 0 5.73-1.552 6.567-2.585 1.548-1.97 1.65-4.985 1.65-7.158v-2.68c0-2.51-.302-5.62-1.65-7.49-1.348-1.855-3.864-2.794-5-3.202l-7.61-2.7c-3.725-1.357-7.485-3.22-9.564-8.097-1.463-3.31-1.568-6.939-1.568-10.573v-2.076c0-6.018 2.404-10.574 5.419-13.48 3.434-3.314 7.793-4.451 12.592-4.451 10.395 0 17.382 6.746 17.382 18.765v2.379h-10.408v-1.96zM388.653 1.18v31.222h14.042V1.18h10.412v72.586h-10.412V41.728h-14.042v32.038h-10.411V1.18zm52.451 20.224l-5.399 27.58h11.028l-5.629-27.58zM451.4 73.767l-3.424-15.555h-13.33l-3.425 15.555h-10.405l15.922-72.586h9.152l15.925 72.586H451.4zM470.25 1.18h10.391l14.364 40.038h.413L509.061 1.18h10.394v72.586h-10.394V28.35h-.519l-10.936 32.765h-5.504L481.166 28.35h-.525v45.417H470.25zm59.81 0h30.906v9.859h-20.508v21.363h18.103v9.326h-18.103v22.19h20.83v9.848H530.06z" fill="#baddf1" fill-rule="evenodd"/></svg>
