<svg width="11" height="18" viewBox="0 0 11 18" xmlns="http://www.w3.org/2000/svg"><title>Shape</title><path d="M8.284 15.055c-.518 0-.97-.121-1.356-.363-.302-.18-.502-.414-.603-.703-.108-.28-.162-.952-.162-2.014V7.363h4.218V4.542H6.163V0H3.625c-.116.92-.325 1.686-.626 2.295A5 5 0 0 1 1.806 3.84c-.495.421-1.094.75-1.797.983v2.54h1.97v6.31c0 .835.085 1.464.255 1.885.162.422.468.831.916 1.23.463.39.996.682 1.599.877.626.21 1.344.316 2.156.316a8.31 8.31 0 0 0 2.004-.222c.588-.133 1.275-.387 2.063-.761v-2.833c-.888.593-1.784.89-2.688.89z" fill="#FFF" fill-rule="evenodd"/></svg>