<svg width="11" height="14" viewBox="0 0 11 14" xmlns="http://www.w3.org/2000/svg"><title>vk</title><path d="M6.153 7.616c-.2-.076-.477-.12-.829-.128a58.821 58.821 0 0 0-1.414-.013h-.612v3.307h.178c.863 0 1.46-.006 1.79-.018a2.796 2.796 0 0 0 1.012-.24c.301-.13.521-.32.66-.571.139-.251.208-.537.208-.856 0-.408-.082-.727-.248-.958-.165-.23-.414-.404-.745-.523m-1.245-2.42c.227-.012.462-.074.705-.186.266-.125.449-.296.55-.515.1-.218.15-.472.15-.762 0-.213-.055-.432-.164-.656a.99.99 0 0 0-.51-.488 2.106 2.106 0 0 0-.776-.155A49.095 49.095 0 0 0 3.53 2.42H3.3v2.793h.416c.568 0 .965-.006 1.193-.018m5.28 5.692a3.53 3.53 0 0 1-1.002 1.233 4.64 4.64 0 0 1-1.636.833c-.594.166-1.35.248-2.266.248H0V0h4.664c.97 0 1.704.037 2.203.11.5.075.968.23 1.405.466.473.255.826.594 1.06 1.02.233.426.35.916.35 1.472 0 .644-.16 1.218-.483 1.72a2.843 2.843 0 0 1-1.334 1.108v.071c.815.172 1.468.522 1.96 1.05.49.53.735 1.244.735 2.142 0 .656-.124 1.233-.372 1.73" fill="#FFF" fill-rule="evenodd"/></svg>